HIERARCHY
ROOT Hips
{
	OFFSET 0.000000 0.000000 0.000000
	CHANNELS 6 Xposition Yposition Zposition Zrotation Yrotation Xrotation 
	JOINT LHipJoint
	{
		OFFSET 0.000000 0.000000 0.000000
		CHANNELS 3 Zrotation Yrotation Xrotation
		JOINT LeftUpLeg
		{
			OFFSET 1.363060 -1.794630 0.839290
			CHANNELS 3 Zrotation Yrotation Xrotation
			JOINT LeftLeg
			{
				OFFSET 2.448110 -6.726130 0.000000
				CHANNELS 3 Zrotation Yrotation Xrotation
				JOINT LeftFoot
				{
					OFFSET 2.562200 -7.039590 0.000000
					CHANNELS 3 Zrotation Yrotation Xrotation
					JOINT LeftToeBase
					{
						OFFSET 0.157640 -0.433110 2.322550
						CHANNELS 3 Zrotation Yrotation Xrotation
						End Site
						{
							OFFSET 0.000000 0.000000 0.000000
						}
					}
				}
			}
		}
	}
	JOINT RHipJoint
	{
		OFFSET 0.000000 0.000000 0.000000
		CHANNELS 3 Zrotation Yrotation Xrotation
		JOINT RightUpLeg
		{
			OFFSET -1.305520 -1.794630 0.839290
			CHANNELS 3 Zrotation Yrotation Xrotation
			JOINT RightLeg
			{
				OFFSET -2.542530 -6.985550 0.000000
				CHANNELS 3 Zrotation Yrotation Xrotation
				JOINT RightFoot
				{
					OFFSET -2.568260 -7.056230 0.000000
					CHANNELS 3 Zrotation Yrotation Xrotation
					JOINT RightToeBase
					{
						OFFSET -0.164730 -0.452590 2.363150
						CHANNELS 3 Zrotation Yrotation Xrotation
						End Site
						{
							OFFSET 0.000000 0.000000 0.000000
						}
					}
				}
			}
		}
	}
	JOINT LowerBack
	{
		OFFSET 0.000000 0.000000 0.000000
		CHANNELS 3 Zrotation Yrotation Xrotation
		JOINT Spine
		{
			OFFSET 0.028270 2.035590 -0.193380
			CHANNELS 3 Zrotation Yrotation Xrotation
			JOINT Spine1
			{
				OFFSET 0.056720 2.048850 -0.042750
				CHANNELS 3 Zrotation Yrotation Xrotation
				JOINT Neck
				{
					OFFSET 0.000000 0.000000 0.000000
					CHANNELS 3 Zrotation Yrotation Xrotation
					JOINT Neck1
					{
						OFFSET -0.054170 1.746240 0.172020
						CHANNELS 3 Zrotation Yrotation Xrotation
						JOINT Head
						{
							OFFSET 0.104070 1.761360 -0.123970
							CHANNELS 3 Zrotation Yrotation Xrotation
							End Site
							{
								OFFSET 0.000000 0.000000 0.000000
							}
						}
					}
				}
				JOINT LeftShoulder
				{
					OFFSET 0.000000 0.000000 0.000000
					CHANNELS 3 Zrotation Yrotation Xrotation
					JOINT LeftArm
					{
						OFFSET 3.362410 1.200890 -0.311210
						CHANNELS 3 Zrotation Yrotation Xrotation
						JOINT LeftForeArm
						{
							OFFSET 4.983000 -0.000000 -0.000000
							CHANNELS 3 Zrotation Yrotation Xrotation
							JOINT LeftHand
							{
								OFFSET 3.483560 -0.000000 -0.000000
								CHANNELS 3 Zrotation Yrotation Xrotation
								JOINT LeftFingerBase
								{
									OFFSET 0.000000 0.000000 0.000000
									CHANNELS 3 Zrotation Yrotation Xrotation
									JOINT LeftHandIndex1
									{
										OFFSET 0.715260 -0.000000 -0.000000
										CHANNELS 3 Zrotation Yrotation Xrotation
										End Site
										{
											OFFSET 0.000000 0.000000 0.000000
										}
									}
								}
								JOINT LThumb
								{
									OFFSET 0.000000 0.000000 0.000000
									CHANNELS 3 Zrotation Yrotation Xrotation
									End Site
									{
										OFFSET 0.000000 0.000000 0.000000
									}
								}
							}
						}
					}
				}
				JOINT RightShoulder
				{
					OFFSET 0.000000 0.000000 0.000000
					CHANNELS 3 Zrotation Yrotation Xrotation
					JOINT RightArm
					{
						OFFSET -3.136600 1.374050 -0.404650
						CHANNELS 3 Zrotation Yrotation Xrotation
						JOINT RightForeArm
						{
							OFFSET -5.241900 -0.000000 -0.000000
							CHANNELS 3 Zrotation Yrotation Xrotation
							JOINT RightHand
							{
								OFFSET -3.444170 -0.000000 -0.000000
								CHANNELS 3 Zrotation Yrotation Xrotation
								JOINT RightFingerBase
								{
									OFFSET 0.000000 0.000000 0.000000
									CHANNELS 3 Zrotation Yrotation Xrotation
									JOINT RightHandIndex1
									{
										OFFSET -0.622530 -0.000000 -0.000000
										CHANNELS 3 Zrotation Yrotation Xrotation
										End Site
										{
											OFFSET 0.000000 0.000000 0.000000
										}
									}
								}
								JOINT RThumb
								{
									OFFSET 0.000000 0.000000 0.000000
									CHANNELS 3 Zrotation Yrotation Xrotation
									End Site
									{
										OFFSET 0.000000 0.000000 0.000000
									}
								}
							}
						}
					}
				}
			}
		}
	}
}
MOTION
Frames: 9
Frame Time: 0.008333
36.165165 16.024775 2.987733 -0.511723 -67.689425 8.614479 -5.898000 -19.386414 -14.673078 -3.739923 20.423896 15.548961 0.325679 24.293690 21.420766 -5.336580 8.528369 -2.357012 6.468089 12.649683 -17.135703 -5.627167 9.183473 -13.786400 11.161286 5.772846 -24.900381 2.294965 -18.245114 33.219048 -0.011286 -3.365102 1.729514 -3.761703 -4.036684 -13.373491 11.683065 2.958980 31.201581 -0.138094 -1.450039 -10.377017 -1.045149 -2.521865 -7.089682 -4.423728 -0.791792 -8.292247 -2.583620 -1.211949 10.087646 13.227940 -19.079733 10.716186 12.946809 -7.412934 0.848775 -86.861709 -26.604126 7.538027 -5.398089 -29.681105 6.049456 6.471795 -5.726945 0.379446 -0.000000 -0.000000 0.000000 -0.000000 -0.000000 0.000000 -0.000000 0.000000 0.000000 -11.989945 3.640947 3.717380 78.331067 13.044927 -1.988687 12.642584 19.850935 -23.240456 3.337485 -15.889198 -2.678706 0.000000 -0.000001 0.000001 -0.000000 -0.000000 0.000000 0.000000 -0.000000 -0.000000 
36.025526 16.017568 3.010676 -0.487204 -68.299185 8.530735 -5.840204 -19.199530 -14.611215 -3.446415 20.253749 14.998426 0.682838 25.441566 23.225629 -4.138000 8.057484 -1.557670 3.185212 14.082105 -15.330400 -5.620315 9.185159 -13.913851 11.776286 5.598856 -24.829046 1.032898 -19.061892 33.990278 0.455166 -1.889379 1.954161 -3.695768 -3.700587 -12.827901 11.455027 2.908372 31.257477 -0.072872 -1.420499 -10.327940 -0.902009 -2.517762 -7.061061 -4.434202 -0.737787 -8.295335 -2.495859 -1.150003 10.052586 13.114979 -18.681994 10.809980 13.051159 -7.287958 0.909138 -87.002813 -26.244303 7.011202 -5.480066 -29.333180 6.183222 6.293057 -6.085246 0.421589 -0.000000 -0.000000 0.000000 0.000000 0.000000 0.000000 0.000000 0.000000 -0.000000 -12.100588 3.729232 3.739283 78.312051 13.385083 -1.748884 12.635532 19.837102 -23.753802 2.792316 -16.098931 -2.644224 0.000000 -0.000001 0.000001 -0.000000 0.000000 0.000000 -0.000000 0.000000 0.000000 
35.888739 16.009009 3.030465 -0.015856 -68.837431 8.150149 -5.832996 -18.972450 -14.534666 -3.495317 19.624106 13.911680 1.572712 27.334304 25.514540 -2.142376 6.748619 -1.030666 -1.426615 16.405864 -13.035302 -5.653374 9.223119 -14.025492 12.320379 5.371511 -24.830297 0.359689 -18.731301 35.000049 0.008903 -1.311320 1.133003 -3.841957 -3.204400 -12.634680 11.155559 2.802819 31.249948 -0.015920 -1.428632 -10.310830 -1.028284 -2.532506 -7.138106 -4.223978 -0.738078 -8.199591 -2.437357 -1.177109 10.044412 12.707113 -18.460846 10.820517 13.308891 -7.244724 0.869318 -87.102254 -25.755968 6.482067 -5.530555 -28.669764 6.075856 6.381090 -6.007218 0.408961 -0.000000 -0.000000 0.000000 0.000000 0.000000 -0.000000 0.000000 -0.000000 0.000000 -11.955714 3.894588 3.738766 78.243547 13.642851 -1.869144 12.678784 19.810988 -22.215791 3.542162 -15.340939 -2.608454 0.000000 -0.000001 0.000001 0.000000 0.000000 0.000000 -0.000000 -0.000000 -0.000000 
35.749550 15.987538 3.055225 0.208338 -69.319482 7.851952 -5.738588 -18.730892 -14.529471 -3.384579 19.533034 13.005520 2.130271 27.742602 28.085734 0.393676 6.287721 -0.844283 -6.072561 18.898389 -10.830613 -5.843575 9.160546 -13.996352 13.066863 5.405131 -24.794725 -0.110289 -18.374333 36.039590 -0.599672 -1.043469 0.084322 -4.564895 -1.783570 -12.839727 11.033216 2.747020 31.210570 0.029660 -1.439605 -10.197141 -0.823808 -2.576731 -7.023082 -4.372254 -0.698486 -8.216106 -2.332430 -1.111568 10.041899 12.269520 -18.143724 11.071951 13.345930 -7.141654 0.932320 -87.299342 -25.534106 5.654443 -5.825778 -27.977223 5.587964 6.180455 -4.994985 0.335537 -0.000000 -0.000000 0.000000 -0.000000 0.000000 0.000000 0.000000 0.000000 0.000000 -12.300455 3.925448 3.746908 78.234940 14.035987 -1.939814 12.781919 19.802915 -22.381465 3.634350 -15.469223 -2.642523 0.000000 -0.000001 0.000001 0.000000 -0.000000 0.000000 0.000000 -0.000000 0.000000 
35.611261 15.983934 3.082132 0.321287 -69.876132 7.920890 -5.790551 -18.513676 -14.337997 -3.155987 19.250445 11.686314 2.880206 28.602738 30.569570 1.617161 5.761276 -0.580181 -10.541216 21.657686 -9.129572 -5.753838 9.203226 -14.100871 13.320342 5.740211 -24.673954 -0.486768 -18.357483 36.780382 -1.311958 -0.784907 -0.717828 -5.148102 -0.454205 -12.820010 10.943159 2.646207 31.099234 0.038409 -1.337410 -10.201378 -1.094316 -2.497140 -7.081815 -4.105953 -0.631743 -8.131890 -2.302816 -1.098011 10.086622 12.690688 -18.014470 10.624643 13.563100 -7.227300 1.002623 -87.383412 -25.196343 5.181858 -5.844629 -27.291864 5.610257 5.645464 -5.041865 0.371355 -0.000000 -0.000000 0.000000 -0.000000 0.000000 0.000000 -0.000000 -0.000000 0.000000 -12.018531 3.896544 3.752848 78.112937 14.250406 -1.659223 12.669575 19.863649 -22.419542 3.580877 -15.513170 -2.643614 0.000000 -0.000001 0.000001 -0.000000 0.000000 0.000000 0.000000 -0.000000 -0.000000 
35.469069 15.991141 3.115450 0.570182 -70.403872 7.953528 -5.898636 -18.415744 -14.050837 -3.189082 17.256881 10.302969 2.000133 29.078475 33.219953 5.456894 7.296092 -0.110002 -14.315906 18.133782 0.084162 -5.772980 9.225633 -14.199092 13.514873 6.254857 -24.389956 -0.488934 -18.225870 37.165192 -2.896131 -0.848829 -1.525843 -4.790144 -0.021796 -11.555201 10.838727 2.574419 30.927212 0.025420 -1.206296 -10.221843 -0.964795 -2.373379 -7.075734 -4.271936 -0.640793 -8.141151 -2.294320 -1.058219 10.116229 12.195706 -17.834873 10.982889 13.297020 -7.258314 1.070913 -87.377703 -24.981993 4.692629 -5.966912 -26.467870 5.582965 6.825529 -6.002250 0.378419 -0.000000 -0.000000 0.000000 0.000000 -0.000000 0.000000 -0.000000 -0.000000 -0.000000 -12.142597 3.835470 3.695424 77.968321 14.432689 -1.763794 12.641380 19.973739 -22.111923 3.934319 -15.438271 -2.674374 0.000000 -0.000001 0.000001 0.000000 0.000000 0.000000 -0.000000 0.000000 0.000000 
35.320571 16.014414 3.143844 0.750565 -70.656847 8.045235 -6.239274 -18.030188 -13.777530 -2.537929 15.971513 7.884709 2.012412 28.799444 37.417680 4.129959 8.942875 0.611314 -15.097286 17.334082 2.087192 -5.710559 9.130607 -14.276109 13.766266 6.516558 -23.840036 -0.516395 -18.071605 37.031960 -4.111589 -0.895423 -2.295709 -4.317206 -0.307503 -10.738056 10.681645 2.477250 30.823146 0.039115 -1.120504 -10.268143 -0.725458 -2.280165 -7.135534 -4.477391 -0.656598 -8.136188 -2.289834 -1.032223 10.117488 11.967081 -17.742860 10.745884 12.992372 -7.285092 1.103880 -87.184357 -24.791661 4.662782 -6.029540 -25.463737 5.229560 6.813548 -5.514304 0.339993 -0.000000 -0.000000 0.000000 0.000000 -0.000000 0.000000 0.000000 -0.000000 -0.000000 -12.273045 3.787256 3.733695 77.844116 14.617262 -1.983882 12.561288 20.307045 -21.668533 4.356443 -15.262892 -2.694818 0.000000 -0.000001 0.000001 -0.000000 0.000000 -0.000000 0.000000 0.000000 0.000000 
35.160961 16.055856 3.189264 0.797914 -70.889549 8.490914 -7.211336 -17.470294 -13.246600 -1.236272 14.675044 5.128745 2.677618 28.977826 41.463451 -0.494127 10.330080 1.092797 -14.420454 19.227622 -1.132056 -5.435252 8.836032 -14.202392 13.790965 6.970767 -23.514341 -0.368458 -17.738411 36.776772 -4.549742 -1.238797 -3.001011 -4.201873 -0.781714 -10.941531 10.767607 2.316064 30.507427 0.010795 -1.159401 -10.433749 -0.922549 -2.295672 -7.052979 -4.335325 -0.623199 -8.289485 -2.395094 -0.989228 10.166871 11.619204 -17.477625 11.031626 12.662366 -7.029496 1.161249 -86.873444 -24.578535 4.406986 -6.119191 -24.382211 5.027651 7.041796 -5.663253 0.337180 -0.000000 -0.000000 0.000000 0.000000 -0.000000 0.000000 0.000000 -0.000000 0.000000 -11.778277 3.844410 3.672371 77.531501 14.775969 -1.863455 12.277237 20.679297 -21.390909 4.589358 -15.186193 -2.709245 0.000000 -0.000001 0.000001 -0.000000 0.000000 -0.000000 -0.000000 -0.000000 -0.000000 
34.999249 16.115165 3.236486 1.124306 -71.111032 8.867725 -8.519797 -16.917616 -12.518914 0.322276 13.570538 1.947312 2.835864 28.421912 45.328700 -5.619723 12.657179 1.403388 -11.005396 15.062864 -0.617941 -4.963111 8.546510 -14.160419 13.497269 7.298954 -23.287978 -0.192907 -17.263788 36.421020 -4.972001 -1.568213 -3.483952 -3.953509 -1.329045 -10.907970 10.817895 2.106913 30.165741 -0.049795 -1.180065 -10.746026 -1.256013 -2.219144 -7.015706 -4.101145 -0.560446 -8.480097 -2.582995 -0.939274 10.277893 11.572132 -17.268512 10.733891 12.161174 -6.823368 1.259502 -86.431977 -24.384594 3.823716 -6.280843 -23.236342 4.950787 6.136550 -5.247517 0.359942 -0.000000 -0.000000 0.000000 -0.000000 0.000000 0.000000 -0.000000 0.000000 -0.000000 -10.955733 3.778423 3.644523 77.088667 14.927116 -2.165347 12.074255 20.940143 -21.416938 4.892858 -15.319903 -2.771589 0.000000 -0.000001 0.000001 -0.000000 0.000000 -0.000000 0.000000 0.000000 0.000000 
